<?xml version="1.0" encoding="utf-8"?>
<svg width="100px" height="100px" viewBox="0 0 100 100" version="1.1" xmlns:xlink="http://www.w3.org/1999/xlink" xmlns="http://www.w3.org/2000/svg">
  <defs>
    <filter id="filter_1">
      <feColorMatrix in="SourceGraphic" type="matrix" values="0 0 0 0 1 0 0 0 0 0 0 0 0 0 0 0 0 0 1 0" />
    </filter>
    <path d="M0 0L100 0L100 100L0 100L0 0Z" id="path_1" />
    <clipPath id="mask_1">
      <use xlink:href="#path_1" />
    </clipPath>
  </defs>
  <g id="Remove-icon-4" filter="url(#filter_1)">
    <path d="M0 0L100 0L100 100L0 100L0 0Z" id="Background" fill="none" fill-rule="evenodd" stroke="none" />
    <g clip-path="url(#mask_1)">
      <path d="M27 0C25.355 0 24 1.35503 24 3L24 5L13.2656 5C11.5109 5 9.87952 5.92281 8.97656 7.42773L7.43359 10L4 10C1.80267 10 0 11.8027 0 14C0 16.1973 1.80267 18 4 18L5.07422 18L8.64844 64.459C8.88773 67.5758 11.5045 70 14.6309 70L47.3691 70C50.4955 70 53.1123 67.5758 53.3516 64.459L56.9258 18L58 18C60.1973 18 62 16.1973 62 14C62 11.8027 60.1973 10 58 10L54.5664 10L53.0234 7.42773C52.1205 5.92281 50.4891 5 48.7344 5L38 5L38 3C38 1.35503 36.645 0 35 0L27 0L27 0ZM27 2L35 2C35.565 2 36 2.43497 36 3L36 5L26 5L26 3C26 2.43497 26.435 2 27 2L27 2ZM13.2656 7L24.832 7C24.94 7.01785 25.0502 7.01785 25.1582 7L36.832 7C36.94 7.01785 37.0502 7.01785 37.1582 7L48.7344 7C49.7897 7 50.7636 7.55195 51.3066 8.45703L52.834 11L49.5 11C49.3197 10.9974 49.152 11.0922 49.0611 11.2479C48.9702 11.4037 48.9702 11.5963 49.0611 11.7521C49.152 11.9078 49.3197 12.0026 49.5 12L54.5 12L58 12C59.1167 12 60 12.8833 60 14C60 15.1167 59.1167 16 58 16L4 16C2.88333 16 2 15.1167 2 14C2 12.8833 2.88333 12 4 12L8 12L42.5 12C42.6803 12.0026 42.848 11.9078 42.9389 11.7521C43.0298 11.5963 43.0299 11.4037 42.9389 11.2479C42.848 11.0922 42.6803 10.9974 42.5 11L9.16602 11L10.6934 8.45703C11.2364 7.55195 12.2103 7 13.2656 7L13.2656 7ZM45.5 11C45.3197 10.9974 45.152 11.0922 45.0611 11.2479C44.9701 11.4037 44.9701 11.5963 45.0611 11.7521C45.152 11.9078 45.3197 12.0026 45.5 12L47.5 12C47.6803 12.0026 47.848 11.9078 47.9389 11.7521C48.0298 11.5963 48.0298 11.4037 47.9389 11.2479C47.848 11.0922 47.6803 10.9974 47.5 11L45.5 11L45.5 11ZM7.07813 18L54.9219 18L51.3574 64.3066C51.1967 66.3998 49.4688 68 47.3691 68L14.6309 68C12.5312 68 10.8033 66.3998 10.6426 64.3066L7.07813 18L7.07813 18ZM19 22C17.3489 22 16 23.3489 16 25L16 60C16 61.6511 17.3489 63 19 63C20.6511 63 22 61.6511 22 60L22 25C22 23.3489 20.6511 22 19 22L19 22ZM31 22C29.3489 22 28 23.3489 28 25L28 60C28 61.6511 29.3489 63 31 63C32.6511 63 34 61.6511 34 60L34 56.5C34.0026 56.3197 33.9078 56.152 33.7521 56.0611C33.5963 55.9702 33.4037 55.9702 33.2479 56.0611C33.0922 56.152 32.9975 56.3197 33 56.5L33 60C33 61.1109 32.1109 62 31 62C29.8891 62 29 61.1109 29 60L29 25C29 23.8891 29.8891 23 31 23C32.1109 23 33 23.8891 33 25L33 50.5C32.9974 50.6803 33.0922 50.848 33.2479 50.9389C33.4037 51.0298 33.5963 51.0298 33.7521 50.9389C33.9078 50.848 34.0025 50.6803 34 50.5L34 25C34 23.3489 32.6511 22 31 22L31 22ZM43 22C41.3489 22 40 23.3489 40 25L40 26.5C39.9974 26.6803 40.0922 26.848 40.2479 26.9389C40.4037 27.0298 40.5963 27.0299 40.7521 26.9389C40.9078 26.848 41.0025 26.6803 41 26.5L41 25C41 23.8891 41.8891 23 43 23C44.1109 23 45 23.8891 45 25L45 60C45 61.1109 44.1109 62 43 62C41.8891 62 41 61.1109 41 60L41 34.5C41.0026 34.3197 40.9078 34.152 40.7521 34.0611C40.5963 33.9702 40.4037 33.9701 40.2479 34.0611C40.0922 34.152 39.9975 34.3197 40 34.5L40 60C40 61.6511 41.3489 63 43 63C44.6511 63 46 61.6511 46 60L46 25C46 23.3489 44.6511 22 43 22L43 22ZM19 23C20.1109 23 21 23.8891 21 25L21 60C21 61.1109 20.1109 62 19 62C17.8891 62 17 61.1109 17 60L17 25C17 23.8891 17.8891 23 19 23L19 23ZM40.4922 28.9922C40.3596 28.9943 40.2332 29.0489 40.1409 29.1442C40.0486 29.2394 39.9979 29.3674 40 29.5L40 31.5C39.9974 31.6803 40.0922 31.848 40.2479 31.9389C40.4037 32.0298 40.5963 32.0299 40.7521 31.9389C40.9078 31.848 41.0025 31.6803 41 31.5L41 29.5C41.0021 29.3647 40.9493 29.2343 40.8536 29.1386C40.7579 29.0429 40.6275 28.9901 40.4922 28.9922L40.4922 28.9922Z" transform="translate(19 13)" id="Shape" fill="#FFFFFF" fill-rule="evenodd" stroke="none" />
    </g>
  </g>
</svg>